<?xml version="1.0" encoding="UTF-8"?>
<svg id="Layer_1" data-name="Layer 1" xmlns="http://www.w3.org/2000/svg" viewBox="0 0 434.05 430.19">
  <defs>
    <style>
      .cls-1 {
        fill: #0f3;
      }
    </style>
  </defs>
  <path class="cls-1" d="M293.56,68.29c45.88,45.24,91.17,91.16,136.9,136.59,5.45,7.37,4.35,14.12-1,21.05l-203.97,203.03c-6.96,3.99-15.38-2.29-14.14-10.05l102.58-141.99-177.73,71.75c-12.76,3-17.17-11.27-6.59-17.58l152.02-88.94,1.3-2.23L9.41,224.93c-8.29-.85-12.38-9.37-6.93-15.98,2.98-3.61,11.06-3.62,15.96-4.04,57.77-4.93,117.98-6.65,176-10,29.45-1.7,59.07-2.5,88.48-5.02l-151.91-89.58c-11.12-5.05-9.04-19.87,3.66-18.75l179.25,72.32L214.52,16.82c-7.13-8.96-.43-20.32,10.79-15.78,22.54,22.63,45.51,44.84,68.25,67.25Z"/>
</svg>